<?xml version="1.0" encoding="utf-8"?>
<!-- Generator: Adobe Illustrator 17.0.0, SVG Export Plug-In . SVG Version: 6.00 Build 0)  -->
<!DOCTYPE svg PUBLIC "-//W3C//DTD SVG 1.1//EN" "http://www.w3.org/Graphics/SVG/1.1/DTD/svg11.dtd">
<svg version="1.1" id="Layer_1" xmlns="http://www.w3.org/2000/svg" xmlns:xlink="http://www.w3.org/1999/xlink" x="0px" y="0px"
	 width="1200px" height="528.52px" viewBox="0 0 1200 528.52" enable-background="new 0 0 1200 528.52" xml:space="preserve">
<g>
	<g>
		<g>
			<path fill="#00A2FA" d="M256.452,353.359c-30.457,0-56.376-4.555-77.729-13.643c-21.369-9.094-38.818-21.467-52.353-37.124
				c-13.545-15.647-23.378-34.046-29.507-55.203c-6.135-21.152-9.202-43.786-9.202-67.902c0-23.259,3.697-45.258,11.108-65.991
				c7.395-20.723,18.399-38.71,32.993-53.938c14.599-15.229,32.683-27.287,54.258-36.169s46.528-13.328,74.878-13.328
				c14.8,0,31.093,1.699,48.857,5.081c17.769,3.388,37.222,9.306,58.379,17.764c-0.423,7.199-1.27,13.964-2.536,20.305
				c-1.27,6.347-2.856,12.802-4.761,19.355c-1.906,6.563-4.234,13.545-6.982,20.94c-2.752,7.405-6.026,15.766-9.832,25.066
				c-14.387-5.918-27.715-10.251-39.98-13.008c-12.275-2.747-22.841-4.126-31.728-4.126c-13.958,0-25.805,2.122-35.534,6.347
				c-9.734,4.235-17.558,9.946-23.476,17.134c-5.933,7.199-10.266,15.544-13.013,25.066c-2.752,9.517-4.121,19.35-4.121,29.502
				c0,28.351,6.125,49.182,18.399,62.505c12.265,13.328,30.241,19.99,53.938,19.99h11.423v-93.283
				c10.571-2.107,19.99-3.589,28.237-4.441c8.252-0.842,16.184-1.265,23.796-1.265c14.805,0,32.363,1.9,52.668,5.706l0,161.18
				c-12.275,4.658-29.409,9.734-51.398,15.229C311.232,350.601,285.644,353.359,256.452,353.359z"/>
			<path fill="#00A2FA" d="M644.797,224.542h-93.913v120.565c-11.005,1.689-20.94,2.954-29.822,3.806
				c-8.887,0.847-16.928,1.27-24.116,1.27c-7.199,0-15.229-0.423-24.111-1.27c-8.887-0.852-18.621-2.117-29.192-3.806l0-327.43
				c9.3-2.112,18.503-3.589,27.607-4.441c9.089-0.842,17.862-1.27,26.331-1.27c8.03,0,16.706,0.429,26.016,1.27
				c9.3,0.852,18.405,2.329,27.287,4.441v111.682h93.913V17.676c9.3-2.112,18.503-3.589,27.607-4.441
				c9.089-0.842,17.862-1.27,26.331-1.27c8.03,0,16.706,0.429,26.016,1.27c9.3,0.852,18.405,2.329,27.287,4.441l0,327.43
				c-11.005,1.689-20.94,2.954-29.822,3.806c-8.887,0.847-16.928,1.27-24.116,1.27c-7.199,0-15.229-0.423-24.111-1.27
				c-8.887-0.852-18.622-2.117-29.192-3.806L644.797,224.542z"/>
			<path fill="#00A2FA" d="M806.602,238.5c0-20.723,4.446-37.852,13.328-51.398c8.882-13.535,20.305-24.323,34.263-32.363
				c13.964-8.03,29.399-13.643,46.327-16.814c16.912-3.176,33.411-4.761,49.492-4.761h38.71c-0.429-7.612-2.541-13.958-6.347-19.035
				c-3.806-5.076-8.676-8.985-14.594-11.738c-5.928-2.747-12.481-4.653-19.67-5.711c-7.199-1.053-14.599-1.591-22.211-1.591
				c-10.153,0-22.004,1.172-35.534,3.491c-13.545,2.329-27.509,6.032-41.885,11.108c-3.806-7.188-7.085-13.741-9.832-19.675
				c-2.758-5.918-4.87-11.944-6.347-18.084c-1.487-6.125-2.536-12.471-3.171-19.035c-0.635-6.553-0.955-14.062-0.955-22.526
				c20.305-6.765,40.507-11.841,60.6-15.229c20.088-3.382,38.173-5.081,54.258-5.081c21.988,0,41.88,2.649,59.645,7.932
				c17.769,5.298,32.89,13.437,45.371,24.431c12.476,11.01,22.102,25.066,28.872,42.2c6.765,17.134,10.153,37.548,10.153,61.235
				v185.926c-16.081,4.658-35.534,9.311-58.379,13.958c-22.841,4.648-46.957,6.982-72.338,6.982c-21.999,0-42.195-2.014-60.6-6.032
				c-18.399-4.012-34.165-10.467-47.277-19.355c-13.117-8.882-23.378-20.62-30.772-35.214
				C810.305,277.525,806.602,259.662,806.602,238.5z M956.359,274.039c3.806,0,9.3-0.418,16.499-1.27
				c7.188-0.842,12.471-1.689,15.864-2.541v-69.802h-36.169c-14.816,0-27.287,3.176-37.439,9.522
				c-10.152,6.341-15.229,15.229-15.229,26.652c0,8.464,1.9,15.131,5.711,19.985c3.806,4.87,8.567,8.567,14.273,11.108
				c5.711,2.536,11.841,4.235,18.405,5.076C944.828,273.621,950.854,274.039,956.359,274.039z"/>
		</g>
	</g>
	<g>
		<path d="M8.565,510.509l7.56,1.367c0.348,2.992,1.398,5.219,3.151,6.681c1.752,1.461,4.182,2.195,7.301,2.195
			c3.397,0,6.099-0.816,8.11-2.442c2.012-1.626,3.391-4.055,4.125-7.275c0.456-1.961,0.683-6.092,0.683-12.393
			c-1.683,2.398-3.574,4.207-5.675,5.422c-2.1,1.221-4.428,1.828-6.984,1.828c-5.46,0-9.989-2.309-13.595-6.934
			c-4.131-5.32-6.2-12.444-6.2-21.371c0-5.985,0.911-11.217,2.733-15.696c1.822-4.485,4.207-7.775,7.168-9.876
			c2.954-2.1,6.276-3.151,9.951-3.151c2.695,0,5.15,0.664,7.377,1.986c2.221,1.316,4.188,3.302,5.909,5.947v-6.674h7.136l0,48.207
			c0,8.572-0.696,14.69-2.1,18.353c-1.398,3.657-3.688,6.542-6.877,8.661c-3.182,2.119-7.016,3.176-11.501,3.176
			c-5.915,0-10.464-1.594-13.652-4.776C10.001,520.555,8.457,516.145,8.565,510.509z M14.973,477.01
			c0,7.332,1.208,12.684,3.625,16.056c2.423,3.366,5.39,5.055,8.895,5.055c3.511,0,6.491-1.651,8.946-4.954
			c2.455-3.296,3.682-8.541,3.682-15.74c0-7.016-1.259-12.235-3.79-15.658c-2.524-3.423-5.593-5.131-9.205-5.131
			c-3.226,0-6.061,1.708-8.496,5.131C16.188,465.193,14.973,470.273,14.973,477.01z"/>
		<path d="M90.371,487.93l7.984,1.208c-1.335,5.953-3.739,10.445-7.218,13.469c-3.486,3.03-7.8,4.542-12.944,4.542
			c-6.478,0-11.723-2.455-15.727-7.377c-4.011-4.916-6.016-12.014-6.016-21.295c0-9.622,2.024-16.967,6.067-22.022
			c4.043-5.061,9.161-7.592,15.361-7.592c5.915,0,10.85,2.486,14.804,7.459c3.96,4.973,5.934,12.166,5.934,21.579l-0.051,2.518
			H64.433c0.316,6.27,1.765,10.995,4.359,14.184c2.588,3.182,5.738,4.776,9.452,4.776C84.051,499.38,88.094,495.566,90.371,487.93z
			 M64.908,472.651h25.521c-0.354-4.833-1.385-8.433-3.1-10.818c-2.486-3.467-5.656-5.194-9.502-5.194
			c-3.467,0-6.428,1.442-8.876,4.327C66.495,463.858,65.148,467.748,64.908,472.651z"/>
		<path d="M105.182,489.195l7.718-1.474c0.449,3.941,1.689,6.864,3.72,8.781c2.024,1.917,4.713,2.879,8.066,2.879
			c3.353,0,5.947-0.835,7.775-2.493c1.835-1.664,2.752-3.777,2.752-6.333c0-2.202-0.784-3.916-2.36-5.143
			c-1.088-0.841-3.714-1.892-7.876-3.151c-6.023-1.854-10.046-3.429-12.077-4.726c-2.031-1.297-3.606-3.03-4.726-5.2
			c-1.12-2.17-1.683-4.637-1.683-7.402c0-4.757,1.525-8.629,4.568-11.603c3.049-2.98,7.263-4.466,12.659-4.466
			c3.391,0,6.377,0.614,8.952,1.841c2.569,1.221,4.542,2.866,5.903,4.935c1.367,2.062,2.315,5.023,2.841,8.876l-7.566,1.259
			c-0.696-6.092-4.005-9.135-9.92-9.135c-3.359,0-5.865,0.671-7.509,2.012s-2.467,3.056-2.467,5.15c0,2.056,0.784,3.682,2.366,4.865
			c0.949,0.696,3.752,1.809,8.414,3.347c6.415,2.037,10.565,3.657,12.45,4.865c1.879,1.215,3.347,2.86,4.391,4.947
			c1.05,2.088,1.575,4.568,1.575,7.44c0,5.333-1.695,9.648-5.067,12.944c-3.385,3.296-7.99,4.941-13.836,4.941
			C113.286,507.149,106.928,501.164,105.182,489.195z"/>
		<path d="M169.502,497.438l1.05,8.345c-2.132,0.563-4.062,0.841-5.776,0.841c-2.695,0-4.865-0.531-6.51-1.601
			c-1.645-1.069-2.777-2.531-3.385-4.384c-0.614-1.854-0.924-5.548-0.924-11.078v-32.088h-5.668v-7.351h5.668v-13.811l7.718-5.668
			l0,19.479h7.826v7.351h-7.826v32.613c0,3.011,0.228,4.954,0.683,5.827c0.664,1.259,1.911,1.892,3.733,1.892
			C166.965,497.805,168.104,497.679,169.502,497.438z"/>
		<path d="M176.803,439.779V428.91h7.718v10.869H176.803z M176.803,505.89l0-55.767h7.718l0,55.767H176.803z"/>
		<path d="M193.448,478.01c0-9.629,2.018-16.892,6.067-21.794c4.043-4.897,9.161-7.351,15.354-7.351
			c6.092,0,11.185,2.455,15.285,7.351c4.093,4.903,6.143,11.976,6.143,21.212c0,10.015-2.018,17.474-6.042,22.37
			c-4.024,4.903-9.154,7.351-15.386,7.351c-6.124,0-11.229-2.455-15.304-7.377C195.485,494.857,193.448,487.601,193.448,478.01z
			 M201.375,477.984c0,7.218,1.316,12.59,3.941,16.113c2.625,3.517,5.877,5.283,9.768,5.283c3.638,0,6.763-1.778,9.369-5.34
			c2.606-3.555,3.91-8.908,3.91-16.056c0-7.187-1.31-12.539-3.935-16.063c-2.625-3.524-5.884-5.283-9.768-5.283
			c-3.676,0-6.807,1.765-9.401,5.308C202.672,465.49,201.375,470.829,201.375,477.984z M209.15,443.196l5.719-14.703h10.135
			l-9.452,14.703H209.15z"/>
		<path d="M245.438,505.89v-55.767h6.984v7.883c1.676-3.068,3.726-5.352,6.156-6.871c2.429-1.512,5.213-2.271,8.364-2.271
			c2.442,0,4.707,0.481,6.788,1.442c2.075,0.968,3.752,2.227,5.03,3.783c1.278,1.556,2.227,3.581,2.86,6.067
			c0.626,2.486,0.943,6.301,0.943,11.444l0,34.289h-7.718v-33.96c0-4.1-0.354-7.092-1.05-8.984
			c-0.702-1.892-1.797-3.359-3.283-4.391c-1.487-1.038-3.214-1.55-5.175-1.55c-3.707,0-6.668,1.385-8.87,4.15
			c-2.208,2.771-3.309,7.516-3.309,14.247v30.487H245.438z"/>
		<path d="M319.002,505.89l0-76.98h7.718v27.621c1.816-2.556,3.878-4.473,6.168-5.751c2.29-1.278,4.821-1.917,7.585-1.917
			c4.865,0,8.711,1.55,11.527,4.65c2.822,3.094,4.226,8.775,4.226,17.037l0,35.339h-7.718l0-35.339
			c0-4.833-0.854-8.294-2.569-10.394c-1.721-2.1-4.081-3.151-7.092-3.151c-3.359,0-6.219,1.348-8.585,4.043
			c-2.36,2.695-3.543,7.471-3.543,14.336l0,30.506H319.002z"/>
		<path d="M365.102,478.01c0-9.629,2.018-16.892,6.067-21.795c4.043-4.897,9.161-7.351,15.354-7.351
			c6.092,0,11.185,2.455,15.285,7.351c4.093,4.903,6.143,11.976,6.143,21.212c0,10.015-2.018,17.474-6.042,22.37
			c-4.024,4.903-9.154,7.351-15.386,7.351c-6.124,0-11.229-2.455-15.304-7.377C367.139,494.857,365.102,487.601,365.102,478.01z
			 M373.029,477.984c0,7.218,1.316,12.59,3.941,16.113c2.625,3.517,5.877,5.283,9.768,5.283c3.638,0,6.763-1.778,9.369-5.339
			c2.606-3.555,3.91-8.908,3.91-16.056c0-7.187-1.31-12.539-3.935-16.063c-2.625-3.524-5.884-5.283-9.768-5.283
			c-3.676,0-6.807,1.765-9.401,5.308C374.326,465.49,373.029,470.829,373.029,477.984z"/>
		<path d="M414.094,489.195l7.718-1.474c0.449,3.941,1.689,6.864,3.72,8.781c2.024,1.917,4.713,2.879,8.066,2.879
			c3.353,0,5.947-0.835,7.775-2.493c1.835-1.664,2.752-3.777,2.752-6.333c0-2.202-0.784-3.916-2.36-5.143
			c-1.088-0.841-3.714-1.892-7.876-3.151c-6.023-1.854-10.046-3.429-12.077-4.726c-2.031-1.297-3.606-3.03-4.726-5.2
			c-1.12-2.17-1.683-4.637-1.683-7.402c0-4.757,1.525-8.629,4.568-11.603c3.049-2.98,7.263-4.466,12.659-4.466
			c3.391,0,6.377,0.614,8.952,1.841c2.569,1.221,4.542,2.866,5.903,4.935c1.366,2.062,2.315,5.023,2.841,8.876l-7.566,1.259
			c-0.696-6.092-4.005-9.135-9.92-9.135c-3.359,0-5.865,0.671-7.509,2.012s-2.467,3.056-2.467,5.15c0,2.056,0.784,3.682,2.366,4.865
			c0.949,0.696,3.752,1.809,8.414,3.347c6.415,2.037,10.565,3.657,12.45,4.865c1.879,1.215,3.347,2.86,4.391,4.947
			c1.05,2.088,1.575,4.568,1.575,7.44c0,5.333-1.695,9.648-5.067,12.944c-3.385,3.296-7.99,4.941-13.836,4.941
			C422.198,507.149,415.84,501.164,414.094,489.195z"/>
		<path d="M461.194,527.261l0-77.138h7.143v7.25c1.746-3.011,3.682-5.181,5.814-6.51c2.132-1.335,4.58-1.999,7.339-1.999
			c3.6,0,6.852,1.069,9.755,3.201c2.897,2.138,5.232,5.384,6.997,9.743c1.765,4.359,2.651,9.603,2.651,15.727
			c0,9.49-1.993,16.797-5.966,21.921c-3.973,5.131-8.636,7.693-13.988,7.693c-2.385,0-4.606-0.614-6.674-1.835
			c-2.062-1.227-3.846-2.961-5.352-5.2v27.147H461.194z M468.236,478.32c0,7.212,1.208,12.526,3.619,15.943
			c2.404,3.41,5.321,5.118,8.743,5.118c3.283,0,6.162-1.771,8.642-5.308c2.48-3.53,3.72-8.996,3.72-16.379
			c0-7.282-1.202-12.672-3.612-16.177c-2.41-3.499-5.346-5.251-8.8-5.251c-3.106,0-5.934,1.885-8.484,5.65
			C469.514,465.68,468.236,471.146,468.236,478.32z"/>
		<path d="M510.237,439.779V428.91h7.718v10.869H510.237z M510.237,505.89v-55.767h7.718v55.767H510.237z"/>
		<path d="M547.044,497.438l1.05,8.345c-2.132,0.563-4.062,0.841-5.776,0.841c-2.695,0-4.865-0.531-6.51-1.601
			c-1.645-1.069-2.777-2.531-3.385-4.384c-0.614-1.854-0.924-5.548-0.924-11.078v-32.088h-5.668v-7.351h5.668v-13.811l7.718-5.668
			v19.479h7.826v7.351h-7.826l0,32.613c0,3.011,0.228,4.954,0.683,5.827c0.664,1.259,1.911,1.892,3.733,1.892
			C544.507,497.805,545.646,497.679,547.044,497.438z"/>
		<path d="M584.117,499.013c-2.594,2.695-5.289,4.726-8.085,6.092c-2.803,1.36-5.706,2.043-8.718,2.043
			c-4.764,0-8.56-1.436-11.394-4.302c-2.834-2.872-4.258-6.744-4.258-11.609c0-3.22,0.664-6.073,1.999-8.56
			c1.329-2.48,3.151-4.428,5.46-5.827s5.808-2.429,10.502-3.1c6.301-0.924,10.919-2.024,13.861-3.302l0.057-2.417
			c0-3.815-0.683-6.497-2.05-8.035c-1.93-2.24-4.884-3.359-8.876-3.359c-3.606,0-6.301,0.747-8.085,2.24
			c-1.784,1.493-3.1,4.302-3.941,8.42l-7.611-1.265c1.082-5.985,3.283-10.344,6.592-13.07c3.302-2.733,8.041-4.1,14.203-4.1
			c4.795,0,8.56,0.905,11.286,2.708c2.733,1.803,4.454,4.03,5.175,6.693c0.715,2.657,1.076,6.548,1.076,11.653v12.602
			c0,8.825,0.164,14.38,0.5,16.676c0.329,2.29,0.987,4.523,1.967,6.693h-8.085C584.882,503.967,584.357,501.671,584.117,499.013z
			 M583.484,477.902c-2.834,1.398-7.054,2.594-12.653,3.568c-3.258,0.563-5.529,1.202-6.826,1.917
			c-1.297,0.721-2.303,1.733-3.018,3.049c-0.721,1.31-1.076,2.828-1.076,4.542c0,2.657,0.816,4.789,2.467,6.377
			c1.645,1.594,3.916,2.391,6.826,2.391c2.765,0,5.276-0.715,7.535-2.151c2.258-1.436,3.941-3.353,5.067-5.751
			c1.12-2.398,1.677-5.89,1.677-10.477V477.902z"/>
		<path d="M603.127,505.89v-76.98h7.718l0,76.98H603.127z"/>
		<path d="M652.746,499.013c-2.594,2.695-5.289,4.726-8.085,6.092c-2.803,1.36-5.706,2.043-8.718,2.043
			c-4.764,0-8.56-1.436-11.394-4.302c-2.834-2.872-4.258-6.744-4.258-11.609c0-3.22,0.664-6.073,1.999-8.56
			c1.329-2.48,3.151-4.428,5.46-5.827s5.808-2.429,10.502-3.1c6.301-0.924,10.919-2.024,13.861-3.302l0.057-2.417
			c0-3.815-0.683-6.497-2.05-8.035c-1.93-2.24-4.884-3.359-8.876-3.359c-3.606,0-6.301,0.747-8.085,2.24
			c-1.784,1.493-3.1,4.302-3.941,8.42l-7.611-1.265c1.082-5.985,3.283-10.344,6.592-13.07c3.302-2.733,8.041-4.1,14.203-4.1
			c4.795,0,8.56,0.905,11.286,2.708c2.733,1.803,4.454,4.03,5.175,6.693c0.715,2.657,1.076,6.548,1.076,11.653v12.602
			c0,8.825,0.164,14.38,0.5,16.676c0.329,2.29,0.987,4.523,1.967,6.693h-8.085C653.511,503.967,652.986,501.671,652.746,499.013z
			 M652.113,477.902c-2.834,1.398-7.054,2.594-12.653,3.568c-3.258,0.563-5.529,1.202-6.826,1.917
			c-1.297,0.721-2.303,1.733-3.018,3.049c-0.721,1.31-1.076,2.828-1.076,4.542c0,2.657,0.816,4.789,2.467,6.377
			c1.645,1.594,3.916,2.391,6.826,2.391c2.765,0,5.276-0.715,7.535-2.151c2.258-1.436,3.941-3.353,5.067-5.751
			c1.12-2.398,1.677-5.89,1.677-10.477V477.902z"/>
		<path d="M672.022,505.89v-55.767h6.984v8.458c1.784-3.922,3.416-6.523,4.909-7.8c1.487-1.278,3.157-1.917,5.01-1.917
			c2.594,0,5.232,1.019,7.933,3.049l-2.625,8.768c-1.93-1.367-3.802-2.05-5.618-2.05c-1.651,0-3.151,0.576-4.517,1.733
			c-1.367,1.151-2.328,2.765-2.891,4.833c-0.981,3.6-1.468,7.434-1.468,11.495v29.196H672.022z"/>
		<path d="M701.37,439.779V428.91h7.718v10.869H701.37z M701.37,505.89v-55.767h7.718l0,55.767H701.37z"/>
		<path d="M750.729,499.013c-2.594,2.695-5.289,4.726-8.085,6.092c-2.803,1.36-5.706,2.043-8.718,2.043
			c-4.764,0-8.56-1.436-11.394-4.302c-2.834-2.872-4.258-6.744-4.258-11.609c0-3.22,0.664-6.073,1.999-8.56
			c1.329-2.48,3.151-4.428,5.46-5.827s5.808-2.429,10.502-3.1c6.301-0.924,10.919-2.024,13.861-3.302l0.057-2.417
			c0-3.815-0.683-6.497-2.05-8.035c-1.93-2.24-4.884-3.359-8.876-3.359c-3.606,0-6.301,0.747-8.085,2.24s-3.1,4.302-3.941,8.42
			l-7.611-1.265c1.082-5.985,3.283-10.344,6.592-13.07c3.302-2.733,8.041-4.1,14.203-4.1c4.795,0,8.56,0.905,11.286,2.708
			c2.733,1.803,4.454,4.03,5.175,6.693c0.715,2.657,1.076,6.548,1.076,11.653v12.602c0,8.825,0.164,14.38,0.5,16.676
			c0.329,2.29,0.987,4.523,1.968,6.693h-8.085C751.495,503.967,750.969,501.671,750.729,499.013z M750.096,477.902
			c-2.834,1.398-7.054,2.594-12.653,3.568c-3.258,0.563-5.529,1.202-6.826,1.917c-1.297,0.721-2.303,1.733-3.018,3.049
			c-0.721,1.31-1.076,2.828-1.076,4.542c0,2.657,0.816,4.789,2.467,6.377c1.645,1.594,3.916,2.391,6.826,2.391
			c2.765,0,5.276-0.715,7.535-2.151s3.941-3.353,5.067-5.751c1.12-2.398,1.677-5.89,1.677-10.477V477.902z"/>
		<path d="M824.293,499.013c-2.594,2.695-5.289,4.726-8.085,6.092c-2.803,1.36-5.706,2.043-8.718,2.043
			c-4.764,0-8.56-1.436-11.394-4.302c-2.834-2.872-4.258-6.744-4.258-11.609c0-3.22,0.664-6.073,1.999-8.56
			c1.329-2.48,3.151-4.428,5.46-5.827c2.309-1.398,5.808-2.429,10.502-3.1c6.301-0.924,10.919-2.024,13.861-3.302l0.057-2.417
			c0-3.815-0.683-6.497-2.05-8.035c-1.93-2.24-4.884-3.359-8.876-3.359c-3.606,0-6.301,0.747-8.085,2.24s-3.1,4.302-3.941,8.42
			l-7.611-1.265c1.082-5.985,3.283-10.344,6.592-13.07c3.302-2.733,8.041-4.1,14.203-4.1c4.795,0,8.56,0.905,11.286,2.708
			c2.733,1.803,4.454,4.03,5.175,6.693c0.715,2.657,1.076,6.548,1.076,11.653v12.602c0,8.825,0.164,14.38,0.5,16.676
			c0.329,2.29,0.987,4.523,1.968,6.693h-8.085C825.058,503.967,824.533,501.671,824.293,499.013z M823.66,477.902
			c-2.834,1.398-7.054,2.594-12.653,3.568c-3.258,0.563-5.529,1.202-6.826,1.917c-1.297,0.721-2.303,1.733-3.018,3.049
			c-0.721,1.31-1.076,2.828-1.076,4.542c0,2.657,0.816,4.789,2.467,6.377c1.645,1.594,3.916,2.391,6.826,2.391
			c2.765,0,5.276-0.715,7.535-2.151c2.259-1.436,3.941-3.353,5.068-5.751c1.12-2.398,1.676-5.89,1.676-10.477V477.902z"/>
		<path d="M840.577,489.195l7.718-1.474c0.449,3.941,1.689,6.864,3.72,8.781c2.024,1.917,4.713,2.879,8.066,2.879
			s5.947-0.835,7.775-2.493c1.835-1.664,2.752-3.777,2.752-6.333c0-2.202-0.784-3.916-2.36-5.143
			c-1.088-0.841-3.714-1.892-7.876-3.151c-6.023-1.854-10.046-3.429-12.077-4.726c-2.031-1.297-3.606-3.03-4.726-5.2
			c-1.12-2.17-1.683-4.637-1.683-7.402c0-4.757,1.525-8.629,4.568-11.603c3.049-2.98,7.263-4.466,12.659-4.466
			c3.391,0,6.377,0.614,8.952,1.841c2.568,1.221,4.542,2.866,5.903,4.935c1.367,2.062,2.315,5.023,2.841,8.876l-7.566,1.259
			c-0.696-6.092-4.005-9.135-9.92-9.135c-3.359,0-5.865,0.671-7.509,2.012c-1.645,1.341-2.467,3.056-2.467,5.15
			c0,2.056,0.784,3.682,2.366,4.865c0.949,0.696,3.752,1.809,8.414,3.347c6.415,2.037,10.565,3.657,12.45,4.865
			c1.879,1.215,3.347,2.86,4.391,4.947c1.05,2.088,1.575,4.568,1.575,7.44c0,5.333-1.695,9.648-5.068,12.944
			c-3.385,3.296-7.99,4.941-13.836,4.941C848.681,507.149,842.323,501.164,840.577,489.195z"/>
		<path d="M887.677,439.779V428.91h7.718v10.869H887.677z M887.677,505.89v-55.767h7.718l0,55.767H887.677z"/>
		<path d="M904.271,489.195l7.718-1.474c0.449,3.941,1.689,6.864,3.72,8.781c2.024,1.917,4.713,2.879,8.066,2.879
			c3.353,0,5.947-0.835,7.775-2.493c1.835-1.664,2.752-3.777,2.752-6.333c0-2.202-0.784-3.916-2.36-5.143
			c-1.088-0.841-3.714-1.892-7.876-3.151c-6.023-1.854-10.046-3.429-12.077-4.726c-2.031-1.297-3.606-3.03-4.726-5.2
			c-1.12-2.17-1.683-4.637-1.683-7.402c0-4.757,1.525-8.629,4.568-11.603c3.049-2.98,7.263-4.466,12.659-4.466
			c3.391,0,6.377,0.614,8.952,1.841c2.569,1.221,4.542,2.866,5.903,4.935c1.367,2.062,2.315,5.023,2.841,8.876l-7.566,1.259
			c-0.696-6.092-4.005-9.135-9.92-9.135c-3.359,0-5.865,0.671-7.509,2.012c-1.645,1.341-2.467,3.056-2.467,5.15
			c0,2.056,0.784,3.682,2.366,4.865c0.949,0.696,3.752,1.809,8.414,3.347c6.415,2.037,10.565,3.657,12.45,4.865
			c1.879,1.215,3.347,2.86,4.391,4.947c1.05,2.088,1.575,4.568,1.575,7.44c0,5.333-1.695,9.648-5.067,12.944
			c-3.385,3.296-7.99,4.941-13.836,4.941C912.375,507.149,906.017,501.164,904.271,489.195z"/>
		<path d="M968.592,497.438l1.05,8.345c-2.132,0.563-4.062,0.841-5.776,0.841c-2.695,0-4.865-0.531-6.51-1.601
			c-1.645-1.069-2.777-2.531-3.385-4.384c-0.614-1.854-0.924-5.548-0.924-11.078v-32.088h-5.668v-7.351h5.668v-13.811l7.718-5.668
			l0,19.479h7.826v7.351h-7.826v32.613c0,3.011,0.228,4.954,0.683,5.827c0.664,1.259,1.911,1.892,3.733,1.892
			C966.055,497.805,967.194,497.679,968.592,497.438z"/>
		<path d="M1007.132,487.93l7.984,1.208c-1.335,5.953-3.739,10.445-7.218,13.469c-3.486,3.03-7.8,4.542-12.944,4.542
			c-6.478,0-11.723-2.455-15.727-7.377c-4.011-4.916-6.016-12.014-6.016-21.295c0-9.622,2.024-16.967,6.067-22.022
			c4.043-5.061,9.161-7.592,15.361-7.592c5.915,0,10.85,2.486,14.804,7.459c3.96,4.973,5.934,12.166,5.934,21.579l-0.051,2.518
			h-34.131c0.316,6.27,1.765,10.995,4.359,14.184c2.588,3.182,5.738,4.776,9.452,4.776
			C1000.812,499.38,1004.855,495.566,1007.132,487.93z M981.669,472.651h25.521c-0.354-4.833-1.385-8.433-3.1-10.818
			c-2.486-3.467-5.656-5.194-9.502-5.194c-3.467,0-6.428,1.442-8.876,4.327C983.256,463.858,981.909,467.748,981.669,472.651z"/>
		<path d="M1024.935,505.89v-55.767h6.984v7.883c1.677-3.068,3.726-5.352,6.156-6.87c2.429-1.512,5.213-2.271,8.364-2.271
			c2.442,0,4.707,0.481,6.788,1.442c2.075,0.968,3.752,2.227,5.029,3.783c1.278,1.556,2.227,3.581,2.86,6.067
			c0.626,2.486,0.943,6.301,0.943,11.444v34.289h-7.718v-33.96c0-4.1-0.354-7.092-1.05-8.984c-0.702-1.892-1.797-3.359-3.283-4.391
			c-1.487-1.038-3.214-1.55-5.175-1.55c-3.707,0-6.668,1.385-8.87,4.15c-2.208,2.771-3.309,7.516-3.309,14.247v30.487H1024.935z"/>
		<path d="M1103.908,485.462l7.611,1.208c-0.873,6.655-3.068,11.729-6.586,15.228c-3.524,3.505-7.75,5.251-12.684,5.251
			c-5.985,0-10.913-2.455-14.779-7.377c-3.872-4.916-5.801-12.191-5.801-21.82c0-9.692,1.948-16.967,5.852-21.814
			c3.903-4.852,8.92-7.275,15.044-7.275c4.726,0,8.705,1.474,11.944,4.409c3.239,2.942,5.314,7.351,6.225,13.235l-7.509,1.367
			c-0.734-3.764-2.012-6.579-3.834-8.439c-1.822-1.866-4.011-2.796-6.567-2.796c-3.815,0-6.972,1.689-9.477,5.067
			c-2.499,3.378-3.751,8.743-3.751,16.094c0,7.592,1.196,13.089,3.593,16.487c2.398,3.391,5.472,5.093,9.218,5.093
			c2.942,0,5.453-1.132,7.535-3.391C1102.022,493.737,1103.344,490.226,1103.908,485.462z"/>
		<path d="M1118.085,439.779V428.91h7.718v10.869H1118.085z M1118.085,505.89v-55.767h7.718v55.767H1118.085z"/>
		<path d="M1167.444,499.013c-2.594,2.695-5.289,4.726-8.085,6.092c-2.803,1.36-5.706,2.043-8.718,2.043
			c-4.764,0-8.56-1.436-11.394-4.302c-2.834-2.872-4.258-6.744-4.258-11.609c0-3.22,0.664-6.073,1.999-8.56
			c1.329-2.48,3.151-4.428,5.46-5.827c2.309-1.398,5.808-2.429,10.502-3.1c6.301-0.924,10.919-2.024,13.861-3.302l0.057-2.417
			c0-3.815-0.683-6.497-2.05-8.035c-1.93-2.24-4.884-3.359-8.876-3.359c-3.606,0-6.301,0.747-8.085,2.24
			c-1.784,1.493-3.1,4.302-3.941,8.42l-7.611-1.265c1.082-5.985,3.283-10.344,6.592-13.07c3.302-2.733,8.041-4.1,14.203-4.1
			c4.795,0,8.56,0.905,11.286,2.708c2.733,1.803,4.454,4.03,5.175,6.693c0.715,2.657,1.076,6.548,1.076,11.653v12.602
			c0,8.825,0.164,14.38,0.5,16.676c0.329,2.29,0.987,4.523,1.968,6.693h-8.085C1168.209,503.967,1167.684,501.671,1167.444,499.013z
			 M1166.811,477.902c-2.834,1.398-7.054,2.594-12.653,3.568c-3.258,0.563-5.529,1.202-6.826,1.917
			c-1.297,0.721-2.303,1.733-3.018,3.049c-0.721,1.31-1.076,2.828-1.076,4.542c0,2.657,0.816,4.789,2.467,6.377
			c1.645,1.594,3.916,2.391,6.826,2.391c2.765,0,5.276-0.715,7.535-2.151c2.259-1.436,3.941-3.353,5.068-5.751
			c1.12-2.398,1.677-5.89,1.677-10.477V477.902z"/>
		<path d="M1186.448,505.89v-76.98h7.718l0,76.98H1186.448z"/>
	</g>
</g>
</svg>
